<svg width="32" height="32" viewBox="0 0 32 32" fill="none" xmlns="http://www.w3.org/2000/svg">
<g clip-path="url(#clip0_1001_772)">
<path d="M8 15.5625C8 15.9531 8.14062 16.2969 8.4375 16.5938L20.8281 28.7031C21.0938 28.9844 21.4375 29.125 21.8438 29.125C22.6562 29.125 23.2812 28.5156 23.2812 27.7031C23.2812 27.2969 23.1094 26.9531 22.8594 26.6875L11.4844 15.5625L22.8594 4.4375C23.1094 4.17188 23.2812 3.8125 23.2812 3.42188C23.2812 2.60938 22.6562 2 21.8438 2C21.4375 2 21.0938 2.14062 20.8281 2.40625L8.4375 14.5312C8.14062 14.8125 8 15.1719 8 15.5625Z" fill="white"/>
</g>
<defs>
<clipPath id="clip0_1001_772">
<rect width="15.2812" height="27.1406" fill="white" transform="translate(8 2)"/>
</clipPath>
</defs>
</svg>
