<svg width="18" height="11" viewBox="0 0 18 11" fill="none" xmlns="http://www.w3.org/2000/svg">
<path d="M6.76397 8.75109L4.07348 6.06043L16.4242 6.06043C16.9262 6.06043 17.3332 5.6534 17.3332 5.15134C17.3332 4.64928 16.9262 4.24225 16.4242 4.24225L4.07354 4.24225L6.76397 1.55183C6.94148 1.37431 7.03027 1.14165 7.03027 0.909042C7.03027 0.676436 6.94154 0.443709 6.76397 0.266255C6.40894 -0.0887751 5.83336 -0.0887751 5.47833 0.266255L1.23615 4.50837C1.21488 4.52964 1.19482 4.55201 1.17573 4.57528C1.16724 4.58558 1.15991 4.59649 1.15197 4.60698C1.14215 4.62013 1.13197 4.63298 1.12288 4.64661C1.11427 4.65946 1.10682 4.67286 1.09888 4.68601C1.09154 4.69825 1.08385 4.71019 1.07712 4.7228C1.06991 4.73631 1.06385 4.75013 1.05736 4.76389C1.05118 4.77704 1.04458 4.79001 1.039 4.80346C1.03348 4.81673 1.02906 4.83025 1.02427 4.84376C1.01906 4.85825 1.01348 4.87261 1.009 4.88746C1.00494 4.90086 1.00203 4.91437 0.998575 4.92789C0.994696 4.94316 0.990454 4.95825 0.987363 4.97376C0.984272 4.98922 0.982514 5.00486 0.980272 5.02031C0.978272 5.03413 0.975666 5.0477 0.974272 5.0617C0.971484 5.09001 0.970151 5.11837 0.969969 5.14667C0.969969 5.14819 0.969727 5.14976 0.969727 5.15128C0.969727 5.15328 0.97003 5.15528 0.97003 5.15734C0.970211 5.18522 0.971484 5.2131 0.974272 5.24079C0.975666 5.25498 0.978272 5.26886 0.980333 5.28279C0.982575 5.29813 0.984333 5.31352 0.987302 5.32873C0.990393 5.34443 0.994696 5.35964 0.998636 5.37504C1.00203 5.38843 1.00494 5.40182 1.00894 5.41504C1.01348 5.43001 1.01906 5.44449 1.02433 5.45916C1.02912 5.47249 1.03348 5.48588 1.03894 5.4991C1.04458 5.51273 1.05118 5.5257 1.05748 5.53898C1.06391 5.55261 1.06997 5.56637 1.07712 5.57976C1.08391 5.59237 1.09161 5.60437 1.09894 5.61667C1.10682 5.62988 1.11427 5.64322 1.12288 5.65601C1.13185 5.66952 1.14185 5.68213 1.15161 5.6951C1.15967 5.70588 1.16718 5.71698 1.17585 5.72752C1.19397 5.74964 1.21324 5.77085 1.23336 5.79116C1.23433 5.79213 1.23512 5.79316 1.23603 5.79413L5.47827 10.0367C5.8333 10.3916 6.40888 10.3917 6.76391 10.0367C7.119 9.6817 7.11888 9.10606 6.76397 8.75109Z" fill="#E2E2E2"/>
</svg>
