<svg width="18" height="11" viewBox="0 0 18 11" fill="none" xmlns="http://www.w3.org/2000/svg">
<path d="M11.5388 1.55182L14.2292 4.24249L1.87858 4.24249C1.37652 4.24249 0.969492 4.64952 0.969492 5.15158C0.969492 5.65364 1.37652 6.06067 1.87858 6.06067L14.2292 6.06067L11.5388 8.75109C11.3612 8.9286 11.2725 9.16127 11.2725 9.39387C11.2725 9.62648 11.3612 9.85921 11.5388 10.0367C11.8938 10.3917 12.4694 10.3917 12.8244 10.0367L17.0666 5.79455C17.0879 5.77327 17.1079 5.75091 17.127 5.72764C17.1355 5.71733 17.1428 5.70642 17.1508 5.69594C17.1606 5.68279 17.1708 5.66994 17.1799 5.6563C17.1885 5.64346 17.1959 5.63006 17.2039 5.61691C17.2112 5.60467 17.2189 5.59273 17.2256 5.58012C17.2328 5.56661 17.2389 5.55279 17.2454 5.53903C17.2516 5.52588 17.2582 5.51291 17.2637 5.49946C17.2692 5.48618 17.2737 5.47267 17.2785 5.45915C17.2837 5.44467 17.2892 5.4303 17.2937 5.41546C17.2978 5.40206 17.3007 5.38855 17.3042 5.37503C17.308 5.35976 17.3123 5.34467 17.3154 5.32915C17.3185 5.3137 17.3202 5.29806 17.3225 5.28261C17.3245 5.26879 17.3271 5.25521 17.3285 5.24121C17.3313 5.21291 17.3326 5.18455 17.3328 5.15624C17.3328 5.15473 17.333 5.15315 17.333 5.15164C17.333 5.14964 17.3327 5.14764 17.3327 5.14558C17.3325 5.1177 17.3313 5.08982 17.3285 5.06212C17.3271 5.04794 17.3245 5.03406 17.3224 5.02012C17.3202 5.00479 17.3184 4.9894 17.3154 4.97418C17.3123 4.95849 17.308 4.94327 17.3041 4.92788C17.3007 4.91449 17.2978 4.90109 17.2938 4.88788C17.2893 4.87291 17.2837 4.85843 17.2784 4.84376C17.2736 4.83043 17.2693 4.81703 17.2638 4.80382C17.2582 4.79018 17.2516 4.77721 17.2453 4.76394C17.2388 4.75031 17.2328 4.73655 17.2256 4.72315C17.2188 4.71055 17.2111 4.69855 17.2038 4.68624C17.1959 4.67303 17.1885 4.6597 17.1799 4.64691C17.1709 4.6334 17.1609 4.62079 17.1511 4.60782C17.1431 4.59703 17.1356 4.58594 17.1269 4.5754C17.1088 4.55327 17.0895 4.53206 17.0694 4.51176C17.0684 4.51079 17.0676 4.50976 17.0667 4.50879L12.8245 0.266249C12.4694 -0.0887198 11.8939 -0.0887804 11.5388 0.266249C11.1837 0.621219 11.1839 1.19685 11.5388 1.55182Z" fill="#E2E2E2"/>
</svg>
